<svg width="176" height="24" viewBox="0 0 176 24" fill="none" xmlns="http://www.w3.org/2000/svg">
<path d="M13.914 5.95868C15.559 5.95868 16.8925 4.62505 16.8925 2.98015C16.8925 1.33525 15.559 0.00161132 13.914 0.00161132C13.9112 0.00161132 13.9087 0.00200061 13.906 0.00200061C7.32987 0.0062832 2 5.33849 2 11.9158C2 18.4958 7.33415 23.8297 13.914 23.8297C15.559 23.8297 16.8925 22.4961 16.8925 20.8512C16.8925 19.2063 15.559 17.8726 13.914 17.8726C13.913 17.8726 13.9122 17.8728 13.9112 17.8728C10.6226 17.8713 7.95688 15.2048 7.95688 11.9158C7.95688 8.62576 10.624 5.95868 13.914 5.95868Z" fill="#0DC167"/>
<path d="M72.655 6.12878C72.6558 6.12878 72.6568 6.12897 72.6575 6.12897C74.3026 6.12897 75.6361 4.79553 75.6361 3.15044C75.6361 1.50534 74.3026 0.1719 72.6575 0.1719C66.0775 0.1719 60.7436 5.50605 60.7436 12.0859C60.7436 18.6631 66.0734 23.9953 72.6496 23.9996C72.6523 23.9996 72.6548 24 72.6575 24C74.3026 24 75.6361 22.6664 75.6361 21.0215C75.6361 19.3766 74.3026 18.0429 72.6575 18.0429C69.3675 18.0429 66.7005 15.3759 66.7005 12.0859C66.7005 8.79663 69.3662 6.13014 72.655 6.12878Z" fill="#0DC167"/>
<path d="M30.5025 0C23.9225 0 18.5884 5.33415 18.5884 11.9141V20.8498C18.5884 22.4947 19.9218 23.8283 21.5669 23.8283C23.212 23.8283 24.5455 22.4949 24.5455 20.8498V11.9141C24.5455 8.62415 27.2125 5.95707 30.5025 5.95707C32.1476 5.95707 33.4811 4.62363 33.4811 2.97854C33.4811 1.33344 32.1476 0 30.5025 0Z" fill="#0DC167"/>
<path d="M47.097 0.0033691C40.517 0.0033691 35.183 5.33752 35.183 11.9173C35.183 18.4541 40.4481 23.7589 46.9687 23.8282C48.6138 23.8282 49.9472 22.4947 49.9472 20.8496C49.9472 19.2045 48.6138 17.8711 46.9687 17.8711C43.7383 17.8026 41.1401 15.1643 41.1401 11.9173C41.1401 8.62732 43.8072 5.96025 47.0972 5.96025C50.3872 5.96025 53.0543 8.62732 53.0543 11.9173C53.0543 13.265 52.604 14.5058 51.8491 15.5036C51.3521 16.0358 51.0455 16.7483 51.0455 17.5339C51.0455 19.1788 52.379 20.5125 54.0241 20.5125C54.957 20.5125 55.7886 20.0828 56.3347 19.4115C56.3371 19.4085 56.3415 19.4048 56.3418 19.4087C56.3421 19.4126 56.3473 19.4194 56.3498 19.4163C58.0123 17.3684 59.0113 14.7606 59.0113 11.9173C59.0111 5.33752 53.677 0.0033691 47.097 0.0033691Z" fill="#0DC167"/>
<path d="M89.252 0.173438C82.672 0.173438 77.3381 5.50759 77.3381 12.0874C77.3381 18.6242 82.6031 23.9289 89.1237 23.9982C90.7688 23.9982 92.1023 22.6648 92.1023 21.0197C92.1023 19.3746 90.7686 18.0412 89.1237 18.0412C89.1231 18.0412 89.1224 18.0412 89.1218 18.0412C85.8923 17.9717 83.2951 15.3338 83.2951 12.0876C83.2951 8.79759 85.9622 6.13051 89.2522 6.13051C92.5422 6.13051 95.2093 8.79759 95.2093 12.0876C95.2093 13.4352 94.759 14.676 94.0041 15.6739C93.5071 16.2061 93.2006 16.9185 93.2006 17.7042C93.2006 19.3491 94.534 20.6827 96.1791 20.6827C97.112 20.6827 97.9436 20.2531 98.4897 19.5817C98.4921 19.5787 98.4965 19.5751 98.4968 19.5789C98.4971 19.5829 98.5024 19.5896 98.5049 19.5866C100.167 17.5387 101.166 14.9309 101.166 12.0876C101.166 5.50759 95.832 0.173438 89.252 0.173438Z" fill="#0DC167"/>
<path fill-rule="evenodd" clip-rule="evenodd" d="M113.834 6.97962C111.05 6.97962 108.579 8.31676 107.026 10.3835V0.888621H107.026C107.025 0.419289 106.645 0.0393066 106.175 0.0393066C105.706 0.0393066 105.325 0.419483 105.324 0.888621H105.324V15.4897C105.324 20.1896 109.134 23.9998 113.834 23.9998C118.534 23.9998 122.344 20.1896 122.344 15.4897C122.344 10.7898 118.534 6.97962 113.834 6.97962ZM113.834 22.2976C110.074 22.2976 107.026 19.2496 107.026 15.4897C107.026 11.7298 110.074 8.68175 113.834 8.68175C117.594 8.68175 120.642 11.7298 120.642 15.4897C120.642 19.2496 117.594 22.2976 113.834 22.2976ZM126.678 1.02268C126.677 0.553352 126.297 0.17337 125.827 0.17337C125.358 0.17337 124.977 0.553546 124.976 1.02268H124.976V23.1486C124.976 23.6186 125.357 23.9997 125.827 23.9997C126.297 23.9997 126.678 23.6188 126.678 23.1486L126.678 1.02268ZM129.039 15.4897C129.039 10.7898 132.849 6.97965 137.549 6.97965C142.249 6.97965 146.059 10.7898 146.059 15.4897C146.059 20.1897 142.249 23.9998 137.549 23.9998C132.849 23.9998 129.039 20.1897 129.039 15.4897ZM130.741 15.4897C130.741 19.2496 133.789 22.2977 137.549 22.2977C141.309 22.2977 144.357 19.2496 144.357 15.4897C144.357 11.7298 141.309 8.68179 137.549 8.68179C133.789 8.68179 130.741 11.7298 130.741 15.4897ZM156.952 22.2977C153.192 22.2977 150.144 19.2496 150.144 15.4897C150.144 11.7298 153.192 8.68179 156.952 8.68179C157.422 8.68179 157.803 8.30083 157.803 7.83072C157.803 7.36061 157.422 6.97965 156.952 6.97965C152.252 6.97965 148.442 10.7898 148.442 15.4897C148.442 20.1897 152.252 23.9998 156.952 23.9998C157.422 23.9998 157.803 23.6189 157.803 23.1487C157.803 22.6786 157.422 22.2977 156.952 22.2977ZM168.08 13.9384L173.683 22.6912C173.935 23.0869 173.819 23.6121 173.424 23.8654C173.028 24.1187 172.503 24.0036 172.249 23.6088H172.249L166.847 15.1706L163.328 18.6897V23.1486C163.328 23.6188 162.947 23.9997 162.477 23.9997C162.007 23.9997 161.626 23.6186 161.626 23.1486V1.02268H161.626C161.627 0.553546 162.008 0.17337 162.477 0.17337C162.947 0.17337 163.327 0.553352 163.328 1.02268H163.328V16.2825L172.364 7.24644L172.364 7.24664C172.697 6.91532 173.235 6.91571 173.567 7.24761C173.899 7.57951 173.899 8.11737 173.568 8.44985L173.568 8.45005L168.08 13.9384Z" fill="#334155"/>
</svg>
