<svg width="179" height="25" viewBox="0 0 179 25" fill="none" xmlns="http://www.w3.org/2000/svg">
<path d="M12.4103 6.20693C14.1239 6.20693 15.5129 4.81774 15.5129 3.10431C15.5129 1.39087 14.1239 0.00167845 12.4103 0.00167845C12.4075 0.00167845 12.4048 0.00208396 12.402 0.00208396C5.55192 0.00654496 0 5.5609 0 12.4122C0 19.2663 5.55638 24.8225 12.4103 24.8225C14.1239 24.8225 15.5129 23.4333 15.5129 21.7199C15.5129 20.0064 14.1239 18.6172 12.4103 18.6172C12.4093 18.6172 12.4085 18.6174 12.4075 18.6174C8.98182 18.6158 6.20505 15.8382 6.20505 12.4122C6.20505 8.98512 8.98324 6.20693 12.4103 6.20693Z" fill="white"/>
<path d="M73.5986 6.38411C73.5994 6.38411 73.6004 6.38432 73.6012 6.38432C75.3149 6.38432 76.7038 4.99532 76.7038 3.28169C76.7038 1.56806 75.3149 0.179062 73.6012 0.179062C66.7471 0.179062 61.1909 5.73544 61.1909 12.5894C61.1909 19.4407 66.7428 24.995 73.5929 24.9995C73.5957 24.9995 73.5984 24.9999 73.6012 24.9999C75.3149 24.9999 76.7038 23.6107 76.7038 21.8972C76.7038 20.1838 75.3149 18.7946 73.6012 18.7946C70.1742 18.7946 67.396 16.0164 67.396 12.5894C67.396 9.16311 70.1727 6.38553 73.5986 6.38411Z" fill="white"/>
<path d="M29.69 0C22.8359 0 17.2795 5.55638 17.2795 12.4105V21.7184C17.2795 23.4318 18.6685 24.821 20.3821 24.821C22.0957 24.821 23.4847 23.432 23.4847 21.7184V12.4105C23.4847 8.98344 26.2629 6.20525 29.69 6.20525C31.4036 6.20525 32.7926 4.81626 32.7926 3.10263C32.7926 1.38899 31.4036 0 29.69 0Z" fill="white"/>
<path d="M46.9758 0.00350946C40.1217 0.00350946 34.5655 5.55989 34.5655 12.4138C34.5655 19.2229 40.0499 24.7487 46.8422 24.8209C48.5558 24.8209 49.9448 23.4319 49.9448 21.7182C49.9448 20.0046 48.5558 18.6156 46.8422 18.6156C43.4772 18.5442 40.7707 15.7961 40.7707 12.4138C40.7707 8.98675 43.5489 6.20856 46.976 6.20856C50.4031 6.20856 53.1813 8.98675 53.1813 12.4138C53.1813 13.8176 52.7122 15.1101 51.9259 16.1495C51.4082 16.7039 51.0888 17.446 51.0888 18.2644C51.0888 19.9778 52.4778 21.367 54.1915 21.367C55.1633 21.367 56.0295 20.9195 56.5984 20.2202C56.6009 20.2171 56.6054 20.2133 56.6057 20.2173C56.606 20.2214 56.6115 20.2284 56.6141 20.2252C58.3458 18.092 59.3865 15.3755 59.3865 12.4138C59.3863 5.55989 53.8299 0.00350946 46.9758 0.00350946Z" fill="white"/>
<path d="M90.887 0.180664C84.0329 0.180664 78.4767 5.73704 78.4767 12.591C78.4767 19.4001 83.9611 24.9258 90.7534 24.998C92.467 24.998 93.856 23.609 93.856 21.8954C93.856 20.1818 92.4669 18.7928 90.7534 18.7928C90.7528 18.7928 90.752 18.7928 90.7514 18.7928C87.3874 18.7204 84.682 15.9726 84.682 12.5912C84.682 9.16411 87.4602 6.38592 90.8873 6.38592C94.3143 6.38592 97.0925 9.16411 97.0925 12.5912C97.0925 13.995 96.6235 15.2874 95.8371 16.3269C95.3195 16.8812 95.0001 17.6234 95.0001 18.4418C95.0001 20.1552 96.3891 21.5444 98.1027 21.5444C99.0745 21.5444 99.9407 21.0969 100.51 20.3975C100.512 20.3944 100.517 20.3906 100.517 20.3946C100.517 20.3987 100.523 20.4058 100.525 20.4026C102.257 18.2694 103.298 15.5529 103.298 12.5912C103.298 5.73704 97.7412 0.180664 90.887 0.180664Z" fill="white"/>
<path d="M129.874 1.06536C129.873 0.576477 129.477 0.180664 128.988 0.180664C128.499 0.180664 128.103 0.576679 128.102 1.06536H128.102V24.1131C128.102 24.6026 128.498 24.9996 128.988 24.9996C129.478 24.9996 129.875 24.6028 129.875 24.1131L129.874 1.06536Z" fill="white"/>
<path d="M116.494 7.27047C113.593 7.27047 111.019 8.66332 109.402 10.8162V0.925713H109.402C109.401 0.436828 109.005 0.0410156 108.515 0.0410156C108.026 0.0410156 107.63 0.437031 107.629 0.925713H107.629V16.1351C107.629 21.0308 111.598 24.9997 116.494 24.9997C121.389 24.9997 125.358 21.0308 125.358 16.1351C125.358 11.2393 121.389 7.27047 116.494 7.27047ZM116.494 23.2267C112.577 23.2267 109.402 20.0516 109.402 16.1351C109.402 12.2185 112.577 9.04352 116.494 9.04352C120.41 9.04352 123.585 12.2185 123.585 16.1351C123.585 20.0516 120.41 23.2267 116.494 23.2267Z" fill="white"/>
<path d="M141.197 7.27051C136.301 7.27051 132.332 11.2394 132.332 16.1351C132.332 21.0309 136.301 24.9997 141.197 24.9997C146.092 24.9997 150.061 21.0309 150.061 16.1351C150.061 11.2394 146.092 7.27051 141.197 7.27051ZM141.197 23.2267C137.28 23.2267 134.105 20.0517 134.105 16.1351C134.105 12.2186 137.28 9.04355 141.197 9.04355C145.113 9.04355 148.288 12.2186 148.288 16.1351C148.288 20.0517 145.113 23.2267 141.197 23.2267Z" fill="white"/>
<path d="M161.408 23.2267C157.491 23.2267 154.316 20.0517 154.316 16.1351C154.316 12.2186 157.491 9.04355 161.408 9.04355C161.897 9.04355 162.294 8.64673 162.294 8.15703C162.294 7.66733 161.897 7.27051 161.408 7.27051C156.512 7.27051 152.543 11.2394 152.543 16.1351C152.543 21.0309 156.512 24.9997 161.408 24.9997C161.897 24.9997 162.294 24.6029 162.294 24.1132C162.294 23.6235 161.897 23.2267 161.408 23.2267Z" fill="white"/>
<path d="M178.836 23.6366L173 14.5191L178.717 8.80216L178.716 8.80196C179.061 8.45562 179.061 7.89536 178.715 7.54963C178.37 7.2039 177.809 7.2035 177.463 7.54862L177.463 7.54841L168.05 16.9609V1.06536H168.05C168.049 0.576477 167.653 0.180664 167.164 0.180664C166.675 0.180664 166.279 0.576679 166.278 1.06536H166.277V24.1131C166.277 24.6026 166.674 24.9996 167.164 24.9996C167.653 24.9996 168.05 24.6028 168.05 24.1131V19.4684L171.716 15.8027L177.343 24.5925H177.343C177.607 25.0037 178.155 25.1235 178.567 24.8597C178.978 24.5959 179.099 24.0488 178.836 23.6366Z" fill="white"/>
</svg>
